<svg width="174" height="155" viewBox="0 0 174 155" fill="none" xmlns="http://www.w3.org/2000/svg">
<path d="M10.5488 111.798C12.9038 111.799 15.1768 112.57 16.9366 113.965C18.6965 115.361 19.8208 117.284 20.0963 119.37L20.1636 120.373V137.522H39.3931C41.8438 137.524 44.2008 138.361 45.9828 139.862C47.7648 141.362 48.8371 143.412 48.9807 145.594C49.1243 147.776 48.3284 149.924 46.7555 151.6C45.1826 153.276 42.9515 154.353 40.5181 154.611L39.3931 154.671H20.1636C15.3122 154.673 10.6395 153.039 7.08226 150.097C3.52498 147.155 1.34601 143.123 0.982157 138.808L0.934082 137.522V120.373C0.934082 118.099 1.94706 115.918 3.75018 114.31C5.5533 112.702 7.99885 111.798 10.5488 111.798ZM164.385 111.798C166.935 111.798 169.381 112.702 171.184 114.31C172.987 115.918 174 118.099 174 120.373V137.522C174 142.07 171.974 146.432 168.368 149.648C164.761 152.864 159.87 154.671 154.77 154.671H135.541C132.991 154.671 130.545 153.768 128.742 152.16C126.939 150.552 125.926 148.371 125.926 146.097C125.926 143.823 126.939 141.642 128.742 140.033C130.545 138.425 132.991 137.522 135.541 137.522H154.77V120.373C154.77 118.099 155.783 115.918 157.586 114.31C159.39 112.702 161.835 111.798 164.385 111.798ZM114.388 93.4231C115.285 92.6161 116.353 91.9761 117.53 91.5404C118.707 91.1047 119.969 90.8819 121.243 90.8851C122.517 90.8882 123.778 91.1172 124.952 91.5587C126.126 92.0002 127.19 92.6454 128.082 93.4568C128.974 94.2682 129.677 95.2297 130.148 96.2853C130.62 97.3409 130.852 98.4696 130.83 99.6057C130.808 100.742 130.534 101.863 130.022 102.904C129.51 103.944 128.771 104.884 127.849 105.668C117.077 115.109 102.571 120.392 87.467 120.373C72.363 120.392 57.8573 115.109 47.085 105.668C46.1624 104.884 45.4238 103.944 44.9121 102.904C44.4003 101.863 44.1256 100.742 44.1039 99.6057C44.0821 98.4696 44.3139 97.3409 44.7856 96.2853C45.2573 95.2297 45.9596 94.2682 46.8516 93.4568C47.7436 92.6454 48.8076 92.0002 49.9817 91.5587C51.1557 91.1172 52.4165 90.8882 53.6907 90.8851C54.9649 90.8819 56.2271 91.1047 57.4039 91.5404C58.5807 91.9761 59.6486 92.6161 60.5456 93.4231C67.7238 99.7218 77.3967 103.243 87.467 103.224C97.9471 103.224 107.437 99.4939 114.388 93.4231ZM53.8153 43.2019C57.6403 43.2019 61.3086 44.557 64.0133 46.969C66.718 49.3811 68.2374 52.6526 68.2374 56.0637C68.2374 59.4749 66.718 62.7464 64.0133 65.1584C61.3086 67.5705 57.6403 68.9256 53.8153 68.9256C49.9903 68.9256 46.322 67.5705 43.6173 65.1584C40.9126 62.7464 39.3931 59.4749 39.3931 56.0637C39.3931 52.6526 40.9126 49.3811 43.6173 46.969C46.322 44.557 49.9903 43.2019 53.8153 43.2019ZM121.119 43.2019C124.944 43.2019 128.612 44.557 131.317 46.969C134.021 49.3811 135.541 52.6526 135.541 56.0637C135.541 59.4749 134.021 62.7464 131.317 65.1584C128.612 67.5705 124.944 68.9256 121.119 68.9256C117.294 68.9256 113.625 67.5705 110.921 65.1584C108.216 62.7464 106.696 59.4749 106.696 56.0637C106.696 52.6526 108.216 49.3811 110.921 46.969C113.625 44.557 117.294 43.2019 121.119 43.2019ZM39.3931 0.329102C41.9431 0.329102 44.3887 1.23249 46.1918 2.84053C47.9949 4.44857 49.0079 6.62955 49.0079 8.90366C49.0079 11.1778 47.9949 13.3587 46.1918 14.9668C44.3887 16.5748 41.9431 17.4782 39.3931 17.4782H20.1636V34.6273C20.1636 36.9015 19.1506 39.0824 17.3475 40.6905C15.5444 42.2985 13.0988 43.2019 10.5488 43.2019C7.99885 43.2019 5.5533 42.2985 3.75018 40.6905C1.94706 39.0824 0.934082 36.9015 0.934082 34.6273V17.4782C0.934082 12.93 2.96004 8.56805 6.56628 5.35196C10.1725 2.13588 15.0636 0.329102 20.1636 0.329102H39.3931ZM154.77 0.329102C159.87 0.329102 164.761 2.13588 168.368 5.35196C171.974 8.56805 174 12.93 174 17.4782V34.6273C174 36.9015 172.987 39.0824 171.184 40.6905C169.381 42.2985 166.935 43.2019 164.385 43.2019C161.835 43.2019 159.39 42.2985 157.586 40.6905C155.783 39.0824 154.77 36.9015 154.77 34.6273V17.4782H135.541C132.991 17.4782 130.545 16.5748 128.742 14.9668C126.939 13.3587 125.926 11.1778 125.926 8.90366C125.926 6.62955 126.939 4.44857 128.742 2.84053C130.545 1.23249 132.991 0.329102 135.541 0.329102H154.77Z" fill="#112B4F"/>
</svg>
