<svg width="174" height="155" viewBox="0 0 174 155" fill="none" xmlns="http://www.w3.org/2000/svg">
<path d="M86.2521 19.2698C103.191 19.2698 119.172 22.2024 134.193 28.0676C149.215 33.9328 161.759 42.4033 171.827 53.4791C172.945 54.6387 173.307 55.6695 172.91 56.5715C172.514 57.4734 171.833 58.2465 170.868 58.8907C169.903 59.535 168.784 59.8262 167.512 59.7643C166.24 59.7025 165.121 59.1536 164.156 58.1177C155.367 48.0675 144.063 40.3701 130.243 35.0254C116.423 29.6808 101.759 27.0059 86.2521 27.0007C70.7447 26.9956 56.2026 29.6705 42.6257 35.0254C29.0488 40.3804 17.7827 48.0778 8.82729 58.1177C7.86847 59.2773 6.74984 59.9215 5.47142 60.0504C4.19299 60.1792 3.07436 59.9215 2.11554 59.2773C0.99692 58.633 0.316157 57.829 0.0732558 56.8652C-0.169645 55.9015 0.191512 54.9016 1.15672 53.8656C11.0645 42.9135 23.4909 34.4095 38.4357 28.3536C53.3805 22.2978 69.3193 19.2698 86.2521 19.2698ZM86.2521 37.4375C107.826 37.4375 126.363 43.2356 141.864 54.832C157.365 66.4284 165.115 80.795 165.115 97.9318C165.115 104.374 162.28 109.755 156.61 114.074C150.94 118.393 144.027 120.55 135.871 120.545C127.715 120.54 120.725 118.383 114.902 114.074C109.078 109.765 106.16 104.385 106.148 97.9318C106.148 93.6798 104.192 90.103 100.28 87.2013C96.3676 84.2997 91.6918 82.8514 86.2521 82.8566C80.8123 82.8617 76.1365 84.3125 72.2245 87.2091C68.3125 90.1056 66.3565 93.6798 66.3565 97.9318C66.3565 110.43 70.9525 120.867 80.1444 129.242C89.3363 137.617 101.2 143.48 115.736 146.83C117.174 147.216 118.133 147.861 118.612 148.763C119.092 149.665 119.172 150.631 118.852 151.662C118.532 152.564 117.893 153.337 116.934 153.981C115.975 154.625 114.777 154.818 113.339 154.561C96.7192 151.211 83.1359 144.541 72.5889 134.553C62.0418 124.565 56.7683 112.358 56.7683 97.9318C56.7683 91.4894 59.6448 86.0778 65.3977 81.6969C71.1506 77.3161 78.1021 75.1256 86.2521 75.1256C94.402 75.1256 101.353 77.3161 107.106 81.6969C112.859 86.0778 115.736 91.4894 115.736 97.9318C115.736 102.184 117.733 105.761 121.728 108.662C125.724 111.564 130.438 113.012 135.871 113.007C141.304 113.002 145.939 111.554 149.774 108.662C153.609 105.771 155.527 102.194 155.527 97.9318C155.527 82.9854 148.735 70.4227 135.152 60.2436C121.569 50.0646 105.349 44.9751 86.4918 44.9751C67.635 44.9751 51.4149 50.0646 37.8316 60.2436C24.2483 70.4227 17.4567 82.921 17.4567 97.7386C17.4567 100.831 17.8178 104.696 18.5401 109.335C19.2625 113.973 20.9787 119.385 23.689 125.57C24.1684 126.729 24.1301 127.76 23.5739 128.662C23.0178 129.564 22.0974 130.208 20.8125 130.595C19.5277 130.981 18.2909 130.951 17.1019 130.502C15.913 130.054 15.0724 129.312 14.5802 128.276C12.1832 123.251 10.4669 118.259 9.43135 113.301C8.39582 108.343 7.87486 103.22 7.86847 97.9318C7.86847 80.795 15.5806 66.4284 31.0048 54.832C46.429 43.2356 64.8448 37.4375 86.2521 37.4375ZM86.2521 0.329102C96.4795 0.329102 106.467 1.32639 116.215 3.32096C125.963 5.31554 135.392 8.18371 144.5 11.9255C145.939 12.5697 146.779 13.3428 147.022 14.2447C147.265 15.1467 147.144 16.0486 146.658 16.9506C146.172 17.8525 145.373 18.5612 144.261 19.0766C143.148 19.5919 141.79 19.5275 140.186 18.8833C131.716 15.4044 122.965 12.7321 113.933 10.8663C104.901 9.0006 95.6741 8.06517 86.2521 8.06001C76.9835 8.06001 67.8747 8.93103 58.9257 10.6731C49.9767 12.4151 41.4272 15.1518 33.2772 18.8833C31.9988 19.5275 30.7204 19.6899 29.4419 19.3703C28.1635 19.0508 27.2047 18.373 26.5655 17.3371C25.9263 16.3012 25.7665 15.3683 26.0861 14.5385C26.4057 13.7087 27.2047 12.9666 28.4831 12.312C37.4321 8.44656 46.7806 5.48304 56.5286 3.42146C66.2766 1.35989 76.1844 0.329102 86.2521 0.329102ZM86.2521 56.1849C101.114 56.1849 113.898 60.2127 124.605 68.2683C135.312 76.3239 140.665 86.2118 140.665 97.9318C140.665 99.0915 140.227 100.027 139.352 100.738C138.476 101.449 137.316 101.802 135.871 101.797C134.593 101.797 133.474 101.444 132.515 100.738C131.556 100.032 131.077 99.0966 131.077 97.9318C131.077 88.2682 126.641 80.1842 117.768 73.68C108.896 67.1757 98.3907 63.921 86.2521 63.9158C74.1134 63.9107 63.6878 67.1654 54.9753 73.68C46.2628 80.1945 41.9066 88.2785 41.9066 97.9318C41.9066 108.369 44.1439 117.228 48.6183 124.511C53.0928 131.793 59.6448 139.104 68.2742 146.443C69.233 147.216 69.7124 148.118 69.7124 149.149C69.7124 150.18 69.233 151.082 68.2742 151.855C67.3153 152.628 66.1967 153.015 64.9183 153.015C63.6399 153.015 62.5212 152.628 61.5624 151.855C52.134 143.866 44.9045 135.718 39.8739 127.41C34.8433 119.102 32.3248 109.276 32.3184 97.9318C32.3184 86.2066 37.5919 76.3162 48.1389 68.2606C58.686 60.205 71.3903 56.1798 86.2521 56.1849ZM86.0123 94.0664C87.4506 94.0664 88.6108 94.4529 89.4929 95.226C90.375 95.9991 90.8128 96.9011 90.8065 97.9318C90.8065 107.595 95.1211 115.52 103.751 121.704C112.38 127.889 122.448 130.981 133.953 130.981C134.912 130.981 136.271 130.917 138.028 130.788C139.786 130.659 141.624 130.466 143.542 130.208C144.98 129.951 146.22 130.113 147.262 130.695C148.304 131.278 148.981 132.146 149.295 133.301C149.614 134.332 149.374 135.233 148.575 136.007C147.776 136.78 146.738 137.295 145.459 137.553C142.583 138.197 140.067 138.553 137.913 138.62C135.759 138.687 134.439 138.718 133.953 138.712C119.731 138.712 107.384 134.847 96.9141 127.116C86.4438 119.385 81.2119 109.657 81.2182 97.9318C81.2182 96.9011 81.6593 95.9991 82.5414 95.226C83.4235 94.4529 84.5805 94.0664 86.0123 94.0664Z" fill="#112B4F"/>
</svg>
