<svg width="60" height="89" viewBox="0 0 60 89" fill="none" xmlns="http://www.w3.org/2000/svg">
<path d="M48.8337 7.66269L48.8257 7.65811L48.8175 7.65388C42.3608 4.32468 36.7595 2.90537 30.051 2.90537C23.3805 2.90537 17.0418 4.48917 11.2757 7.65855C10.6916 7.97418 9.94567 7.76367 9.58821 7.15915C9.43635 6.86988 9.40289 6.53277 9.49514 6.21914C9.58794 5.90362 9.80056 5.637 10.0875 5.47631C16.2249 2.14409 22.955 0.428571 30.051 0.428571C37.0784 0.428571 43.2126 1.97657 49.9579 5.44834C50.58 5.77246 50.7961 6.50979 50.4779 7.09721L50.4725 7.1073L50.4676 7.11766C50.3703 7.32268 50.2172 7.49607 50.0257 7.61789C49.8346 7.7395 49.6132 7.80478 49.3867 7.80626C49.1907 7.80607 48.9984 7.75683 48.8337 7.66269ZM1.67915 25.3094L1.67515 25.3095C1.447 25.3116 1.22272 25.2505 1.02719 25.1329C0.831655 25.0153 0.672512 24.8459 0.567413 24.6434C0.462312 24.4409 0.415362 24.2132 0.43177 23.9856C0.448178 23.7581 0.527302 23.5395 0.660376 23.3542L0.662151 23.3517C3.92374 18.7393 8.07205 15.1184 13.0102 12.5835L13.011 12.5831C23.3569 7.2454 36.6131 7.2126 46.9914 12.55L46.9917 12.5502C51.9312 15.0858 56.0796 18.6741 59.3406 23.2528L59.3409 23.2532C59.436 23.3863 59.5037 23.5369 59.5402 23.6964C59.5767 23.8558 59.5813 24.0208 59.5536 24.182C59.526 24.3432 59.4667 24.4974 59.3792 24.6355C59.2918 24.7735 59.178 24.8927 59.0444 24.9865C58.4647 25.3893 57.7009 25.2583 57.3077 24.6931L57.3059 24.6905C54.3451 20.5022 50.4142 17.0932 45.8492 14.7547L45.6538 15.1361L45.8492 14.7546C36.1585 9.79109 23.777 9.79055 14.1182 14.7886C9.52137 17.1547 5.66925 20.5347 2.63064 24.7888L2.61804 24.8064L2.60728 24.8253C2.43179 25.1324 2.09142 25.3095 1.67915 25.3094ZM22.5163 65.5501L22.5111 65.5502C22.3522 65.5521 22.1947 65.5208 22.0487 65.4582C21.9028 65.3956 21.7715 65.3032 21.6633 65.1868L21.658 65.1811L21.6524 65.1756C18.7743 62.2974 17.2338 60.4618 15.0231 56.4694L15.022 56.4673C12.7627 52.4399 11.5761 47.5134 11.5761 42.2077C11.5761 32.562 19.8325 24.6663 30.0176 24.6663C40.2028 24.6663 48.4592 32.562 48.4592 42.2077C48.4592 42.9045 47.9176 43.4461 47.2208 43.4461C46.524 43.4461 45.9824 42.9045 45.9824 42.2077C45.9824 33.8792 38.7982 27.1431 30.0176 27.1431C21.2371 27.1431 14.0529 33.8792 14.0529 42.2077C14.0529 47.0695 15.133 51.5782 17.2082 55.253C19.3656 59.1293 20.8598 60.7939 23.4418 63.4095C23.9119 63.9072 23.9145 64.6714 23.4497 65.1721C23.1595 65.4313 22.8318 65.5501 22.5163 65.5501ZM36.3279 56.4903L36.3259 56.4889C31.4709 53.198 28.5792 47.8606 28.5792 42.2077C28.5792 41.5109 29.1208 40.9693 29.8176 40.9693C30.5144 40.9693 31.056 41.5109 31.056 42.2077C31.056 47.0566 33.5319 51.6214 37.7127 54.4318C40.1626 56.0879 43.017 56.8722 46.4206 56.8722C47.2475 56.8722 48.6058 56.7697 49.9618 56.5324L49.966 56.5316C50.6269 56.4092 51.2739 56.8476 51.3997 57.5525L51.4002 57.5552C51.5226 58.2161 51.0843 58.8631 50.3794 58.9889L50.3794 58.9889L50.3735 58.99C48.5098 59.3497 46.8724 59.3823 46.4206 59.3823C42.5266 59.3823 39.1135 58.4014 36.3279 56.4903ZM20.0777 42.2092V42.2077C20.0777 37.0617 24.4679 32.8345 29.9176 32.8345C35.3674 32.8345 39.7576 37.0617 39.7576 42.2077C39.7576 46.039 43.0783 49.1041 47.1208 49.1041C51.1633 49.1041 54.4839 46.039 54.4839 42.2077C54.4839 29.3782 43.4322 19.0083 29.8843 19.0083C20.2617 19.0083 11.4371 24.3611 7.46055 32.6872C6.12845 35.4541 5.45134 38.6864 5.45134 42.2077C5.45134 44.8423 5.68875 48.9974 7.71235 54.3937L7.71365 54.3971C7.96329 55.0461 7.63589 55.7541 7.00662 55.972L6.99975 55.9743L6.99296 55.9769C6.35352 56.2229 5.6361 55.8754 5.41632 55.2649L5.4164 55.2649L5.41347 55.2573C3.82273 51.0905 3.00745 46.6679 3.00788 42.2077C3.00788 38.2622 3.76392 34.6923 5.23345 31.5897C9.59279 22.4454 19.2721 16.4982 29.8843 16.4982C44.8385 16.4982 56.9607 28.0293 56.9607 42.1744C56.9607 47.3203 52.5705 51.5476 47.1208 51.5476C41.671 51.5476 37.2808 47.3203 37.2808 42.1744C37.2808 38.3431 33.9601 35.2779 29.9176 35.2779C25.8751 35.2779 22.5545 38.3431 22.5545 42.1744C22.5545 47.9883 24.7995 53.4326 28.9157 57.5147L28.9161 57.5151C32.1392 60.7043 35.2391 62.473 40.0052 63.7913L40.0052 63.7913L40.0119 63.7931C40.6696 63.9636 41.0472 64.6517 40.8725 65.3005L40.8698 65.3106L40.8676 65.3209C40.7462 65.8791 40.23 66.2503 39.7194 66.2503C39.6424 66.2503 39.5205 66.2288 39.3949 66.1976C34.1622 64.7489 30.7614 62.8168 27.1843 59.3053C24.9227 57.0714 23.1294 54.4088 21.9092 51.4735C20.6888 48.5379 20.0662 45.3884 20.0777 42.2092Z" fill="white" stroke="#112B4F" stroke-width="0.857143"/>
<mask id="path-2-outside-1_333_87" maskUnits="userSpaceOnUse" x="3.57153" y="72.4287" width="52" height="13" fill="black">
<rect fill="white" x="3.57153" y="72.4287" width="52" height="13"/>
<path d="M11.1139 79.1765H8.34162V81.7814H10.7992L11.1139 80.6564H12.3461V83.4287H5.1876V82.2635L6.21885 81.8484V75.4064L5.1876 74.9912V73.826L8.34162 73.7591H12.1854V76.4042H10.9465L10.605 75.4064H8.34162V77.6698H11.1139V79.1765ZM17.7635 80.5492H13.8595V78.835H17.7635V80.5492ZM18.5805 73.826L22.8327 73.7591V74.9912L21.8215 75.393L23.0805 79.3305L23.5224 81.018L23.9577 79.3975L25.3171 75.4064L24.2724 74.9912V73.826L28.3773 73.7591V74.9912L27.3729 75.4064L24.48 83.4287H22.2836L19.518 75.3796L18.5805 74.9912V73.826ZM33.7144 73.5984C35.0894 73.5984 36.1541 74.0269 36.9086 74.8841C37.6631 75.7367 38.0403 76.9309 38.0403 78.4667C38.0403 79.48 37.8483 80.3751 37.4644 81.1519C37.0805 81.9287 36.5403 82.5336 35.8439 82.9667C35.1474 83.3952 34.3483 83.6095 33.4465 83.6095C32.076 83.6095 31.0247 83.1899 30.2925 82.3506C29.5604 81.5068 29.1943 80.2792 29.1943 78.6675C29.1943 77.6274 29.3751 76.7256 29.7367 75.9622C30.1028 75.1988 30.6273 74.614 31.3104 74.2077C31.9934 73.8015 32.7948 73.5984 33.7144 73.5984ZM33.6474 75.3126C32.9331 75.3126 32.3997 75.5671 32.047 76.076C31.6988 76.5805 31.5247 77.422 31.5247 78.6006C31.5247 79.7345 31.6831 80.5671 32.0001 81.0984C32.3215 81.6296 32.826 81.8952 33.5135 81.8952C34.2278 81.8952 34.7702 81.6318 35.1407 81.1051C35.5157 80.5783 35.7032 79.7211 35.7032 78.5336C35.7032 77.4175 35.5336 76.6028 35.1943 76.0894C34.8595 75.5716 34.3439 75.3126 33.6474 75.3126ZM41.422 75.4064H40.1162L39.7747 76.7055H38.509V73.7591H46.4644V76.7055H45.1921L44.8506 75.4064H43.5448V81.8484L44.8506 82.2635V83.4287H40.1162V82.2635L41.422 81.8484V75.4064ZM53.1407 79.1765H50.3684V81.7814H52.826L53.1407 80.6564H54.3729V83.4287H47.2144V82.2635L48.2456 81.8484V75.4064L47.2144 74.9912V73.826L50.3684 73.7591H54.2122V76.4042H52.9733L52.6318 75.4064H50.3684V77.6698H53.1407V79.1765Z"/>
</mask>
<path d="M11.1139 79.1765H8.34162V81.7814H10.7992L11.1139 80.6564H12.3461V83.4287H5.1876V82.2635L6.21885 81.8484V75.4064L5.1876 74.9912V73.826L8.34162 73.7591H12.1854V76.4042H10.9465L10.605 75.4064H8.34162V77.6698H11.1139V79.1765ZM17.7635 80.5492H13.8595V78.835H17.7635V80.5492ZM18.5805 73.826L22.8327 73.7591V74.9912L21.8215 75.393L23.0805 79.3305L23.5224 81.018L23.9577 79.3975L25.3171 75.4064L24.2724 74.9912V73.826L28.3773 73.7591V74.9912L27.3729 75.4064L24.48 83.4287H22.2836L19.518 75.3796L18.5805 74.9912V73.826ZM33.7144 73.5984C35.0894 73.5984 36.1541 74.0269 36.9086 74.8841C37.6631 75.7367 38.0403 76.9309 38.0403 78.4667C38.0403 79.48 37.8483 80.3751 37.4644 81.1519C37.0805 81.9287 36.5403 82.5336 35.8439 82.9667C35.1474 83.3952 34.3483 83.6095 33.4465 83.6095C32.076 83.6095 31.0247 83.1899 30.2925 82.3506C29.5604 81.5068 29.1943 80.2792 29.1943 78.6675C29.1943 77.6274 29.3751 76.7256 29.7367 75.9622C30.1028 75.1988 30.6273 74.614 31.3104 74.2077C31.9934 73.8015 32.7948 73.5984 33.7144 73.5984ZM33.6474 75.3126C32.9331 75.3126 32.3997 75.5671 32.047 76.076C31.6988 76.5805 31.5247 77.422 31.5247 78.6006C31.5247 79.7345 31.6831 80.5671 32.0001 81.0984C32.3215 81.6296 32.826 81.8952 33.5135 81.8952C34.2278 81.8952 34.7702 81.6318 35.1407 81.1051C35.5157 80.5783 35.7032 79.7211 35.7032 78.5336C35.7032 77.4175 35.5336 76.6028 35.1943 76.0894C34.8595 75.5716 34.3439 75.3126 33.6474 75.3126ZM41.422 75.4064H40.1162L39.7747 76.7055H38.509V73.7591H46.4644V76.7055H45.1921L44.8506 75.4064H43.5448V81.8484L44.8506 82.2635V83.4287H40.1162V82.2635L41.422 81.8484V75.4064ZM53.1407 79.1765H50.3684V81.7814H52.826L53.1407 80.6564H54.3729V83.4287H47.2144V82.2635L48.2456 81.8484V75.4064L47.2144 74.9912V73.826L50.3684 73.7591H54.2122V76.4042H52.9733L52.6318 75.4064H50.3684V77.6698H53.1407V79.1765Z" fill="white"/>
<path d="M11.1139 79.1765V80.0336H11.9711V79.1765H11.1139ZM8.34162 79.1765V78.3193H7.48448V79.1765H8.34162ZM8.34162 81.7814H7.48448V82.6385H8.34162V81.7814ZM10.7992 81.7814V82.6385H11.4495L11.6247 82.0123L10.7992 81.7814ZM11.1139 80.6564V79.7992H10.4637L10.2885 80.4255L11.1139 80.6564ZM12.3461 80.6564H13.2032V79.7992H12.3461V80.6564ZM12.3461 83.4287V84.2859H13.2032V83.4287H12.3461ZM5.1876 83.4287H4.33046V84.2859H5.1876V83.4287ZM5.1876 82.2635L4.86749 81.4684L4.33046 81.6846V82.2635H5.1876ZM6.21885 81.8484L6.53897 82.6435L7.076 82.4273V81.8484H6.21885ZM6.21885 75.4064H7.076V74.8275L6.53897 74.6113L6.21885 75.4064ZM5.1876 74.9912H4.33046V75.5701L4.86749 75.7863L5.1876 74.9912ZM5.1876 73.826L5.16941 72.9691L4.33046 72.9869V73.826H5.1876ZM8.34162 73.7591V72.9019H8.33252L8.32343 72.9021L8.34162 73.7591ZM12.1854 73.7591H13.0425V72.9019H12.1854V73.7591ZM12.1854 76.4042V77.2613H13.0425V76.4042H12.1854ZM10.9465 76.4042L10.1356 76.6817L10.334 77.2613H10.9465V76.4042ZM10.605 75.4064L11.416 75.1288L11.2176 74.5492H10.605V75.4064ZM8.34162 75.4064V74.5492H7.48448V75.4064H8.34162ZM8.34162 77.6698H7.48448V78.5269H8.34162V77.6698ZM11.1139 77.6698H11.9711V76.8126H11.1139V77.6698ZM11.1139 78.3193H8.34162V80.0336H11.1139V78.3193ZM7.48448 79.1765V81.7814H9.19877V79.1765H7.48448ZM8.34162 82.6385H10.7992V80.9242H8.34162V82.6385ZM11.6247 82.0123L11.9394 80.8873L10.2885 80.4255L9.97376 81.5505L11.6247 82.0123ZM11.1139 81.5135H12.3461V79.7992H11.1139V81.5135ZM11.4889 80.6564V83.4287H13.2032V80.6564H11.4889ZM12.3461 82.5716H5.1876V84.2859H12.3461V82.5716ZM6.04475 83.4287V82.2635H4.33046V83.4287H6.04475ZM5.50772 83.0587L6.53897 82.6435L5.89874 81.0532L4.86749 81.4684L5.50772 83.0587ZM7.076 81.8484V75.4064H5.36171V81.8484H7.076ZM6.53897 74.6113L5.50772 74.1961L4.86749 75.7863L5.89874 76.2015L6.53897 74.6113ZM6.04475 74.9912V73.826H4.33046V74.9912H6.04475ZM5.2058 74.683L8.35982 74.616L8.32343 72.9021L5.16941 72.9691L5.2058 74.683ZM8.34162 74.6162H12.1854V72.9019H8.34162V74.6162ZM11.3282 73.7591V76.4042H13.0425V73.7591H11.3282ZM12.1854 75.547H10.9465V77.2613H12.1854V75.547ZM11.7575 76.1266L11.416 75.1288L9.79406 75.684L10.1356 76.6817L11.7575 76.1266ZM10.605 74.5492H8.34162V76.2635H10.605V74.5492ZM7.48448 75.4064V77.6698H9.19877V75.4064H7.48448ZM8.34162 78.5269H11.1139V76.8126H8.34162V78.5269ZM10.2568 77.6698V79.1765H11.9711V77.6698H10.2568ZM17.7635 80.5492V81.4064H18.6206V80.5492H17.7635ZM13.8595 80.5492H13.0023V81.4064H13.8595V80.5492ZM13.8595 78.835V77.9778H13.0023V78.835H13.8595ZM17.7635 78.835H18.6206V77.9778H17.7635V78.835ZM17.7635 79.6921H13.8595V81.4064H17.7635V79.6921ZM14.7166 80.5492V78.835H13.0023V80.5492H14.7166ZM13.8595 79.6921H17.7635V77.9778H13.8595V79.6921ZM16.9064 78.835V80.5492H18.6206V78.835H16.9064ZM18.5805 73.826L18.567 72.969L17.7233 72.9823V73.826H18.5805ZM22.8327 73.7591H23.6898V72.8883L22.8192 72.902L22.8327 73.7591ZM22.8327 74.9912L23.1492 75.7878L23.6898 75.573V74.9912H22.8327ZM21.8215 75.393L21.505 74.5964L20.7614 74.8919L21.0051 75.654L21.8215 75.393ZM23.0805 79.3305L23.9096 79.1133L23.9038 79.0912L23.8969 79.0695L23.0805 79.3305ZM23.5224 81.018L22.6933 81.2352L23.512 84.3612L24.3502 81.2403L23.5224 81.018ZM23.9577 79.3975L23.1463 79.1211L23.1372 79.1478L23.1299 79.1751L23.9577 79.3975ZM25.3171 75.4064L26.1284 75.6827L26.3913 74.911L25.6336 74.6098L25.3171 75.4064ZM24.2724 74.9912H23.4153V75.5729L23.9559 75.7877L24.2724 74.9912ZM24.2724 73.826L24.2584 72.969L23.4153 72.9828V73.826H24.2724ZM28.3773 73.7591H29.2345V72.8878L28.3634 72.902L28.3773 73.7591ZM28.3773 74.9912L28.7048 75.7834L29.2345 75.5644V74.9912H28.3773ZM27.3729 75.4064L27.0455 74.6142L26.6951 74.759L26.5666 75.1156L27.3729 75.4064ZM24.48 83.4287V84.2859H25.0821L25.2863 83.7195L24.48 83.4287ZM22.2836 83.4287L21.473 83.7072L21.6718 84.2859H22.2836V83.4287ZM19.518 75.3796L20.3286 75.1011L20.203 74.7356L19.846 74.5877L19.518 75.3796ZM18.5805 74.9912H17.7233V75.5639L18.2524 75.7831L18.5805 74.9912ZM18.594 74.6831L22.8462 74.6161L22.8192 72.902L18.567 72.969L18.594 74.6831ZM21.9756 73.7591V74.9912H23.6898V73.7591H21.9756ZM22.5162 74.1946L21.505 74.5964L22.138 76.1896L23.1492 75.7878L22.5162 74.1946ZM21.0051 75.654L22.264 79.5915L23.8969 79.0695L22.638 75.132L21.0051 75.654ZM22.2513 79.5477L22.6933 81.2352L24.3516 80.8008L23.9096 79.1133L22.2513 79.5477ZM24.3502 81.2403L24.7855 79.6198L23.1299 79.1751L22.6946 80.7957L24.3502 81.2403ZM24.7691 79.6738L26.1284 75.6827L24.5057 75.13L23.1463 79.1211L24.7691 79.6738ZM25.6336 74.6098L24.589 74.1947L23.9559 75.7877L25.0005 76.2029L25.6336 74.6098ZM25.1296 74.9912V73.826H23.4153V74.9912H25.1296ZM24.2864 74.6831L28.3913 74.6161L28.3634 72.902L24.2584 72.969L24.2864 74.6831ZM27.5202 73.7591V74.9912H29.2345V73.7591H27.5202ZM28.0499 74.1991L27.0455 74.6142L27.7003 76.1985L28.7048 75.7834L28.0499 74.1991ZM26.5666 75.1156L23.6737 83.138L25.2863 83.7195L28.1792 75.6971L26.5666 75.1156ZM24.48 82.5716H22.2836V84.2859H24.48V82.5716ZM23.0942 83.1502L20.3286 75.1011L18.7073 75.6581L21.473 83.7072L23.0942 83.1502ZM19.846 74.5877L18.9085 74.1993L18.2524 75.7831L19.1899 76.1715L19.846 74.5877ZM19.4376 74.9912V73.826H17.7233V74.9912H19.4376ZM36.9086 74.8841L36.2652 75.4504L36.2667 75.4521L36.9086 74.8841ZM35.8439 82.9667L36.2931 83.6967L36.2965 83.6946L35.8439 82.9667ZM30.2925 82.3506L29.6451 82.9123L29.6466 82.914L30.2925 82.3506ZM29.7367 75.9622L28.9638 75.5916L28.9621 75.5953L29.7367 75.9622ZM32.047 76.076L31.3425 75.5878L31.3416 75.5891L32.047 76.076ZM32.0001 81.0984L31.264 81.5375L31.2667 81.5421L32.0001 81.0984ZM35.1407 81.1051L34.4424 80.608L34.4397 80.6119L35.1407 81.1051ZM35.1943 76.0894L34.4745 76.5548L34.4792 76.562L35.1943 76.0894ZM33.7144 74.4555C34.898 74.4555 35.7065 74.8157 36.2652 75.4504L37.552 74.3177C36.6017 73.2382 35.2808 72.7412 33.7144 72.7412V74.4555ZM36.2667 75.4521C36.8403 76.1004 37.1831 77.0664 37.1831 78.4667H38.8974C38.8974 76.7954 38.4858 75.3731 37.5505 74.3161L36.2667 75.4521ZM37.1831 78.4667C37.1831 79.3706 37.0124 80.1319 36.696 80.7721L38.2328 81.5317C38.6842 80.6184 38.8974 79.5895 38.8974 78.4667H37.1831ZM36.696 80.7721C36.3786 81.4142 35.9442 81.8949 35.3913 82.2388L36.2965 83.6946C37.1363 83.1723 37.7823 82.4432 38.2328 81.5317L36.696 80.7721ZM35.3946 82.2367C34.8469 82.5737 34.2065 82.7524 33.4465 82.7524V84.4667C34.4901 84.4667 35.4479 84.2168 36.2931 83.6967L35.3946 82.2367ZM33.4465 82.7524C32.2616 82.7524 31.4711 82.3977 30.9384 81.7871L29.6466 82.914C30.5783 83.982 31.8904 84.4667 33.4465 84.4667V82.7524ZM30.9399 81.7888C30.3921 81.1575 30.0514 80.1626 30.0514 78.6675H28.3372C28.3372 80.3957 28.7286 81.8561 29.6451 82.9123L30.9399 81.7888ZM30.0514 78.6675C30.0514 77.7256 30.2152 76.9544 30.5113 76.3291L28.9621 75.5953C28.5351 76.4967 28.3372 77.5292 28.3372 78.6675H30.0514ZM30.5096 76.3328C30.8076 75.7113 31.2204 75.2586 31.7485 74.9444L30.8722 73.471C30.0343 73.9694 29.398 74.6863 28.9638 75.5916L30.5096 76.3328ZM31.7485 74.9444C32.2794 74.6287 32.9244 74.4555 33.7144 74.4555V72.7412C32.6651 72.7412 31.7075 72.9743 30.8722 73.471L31.7485 74.9444ZM33.6474 74.4555C32.7019 74.4555 31.8817 74.8097 31.3425 75.5878L32.7515 76.5642C32.9176 76.3246 33.1644 76.1698 33.6474 76.1698V74.4555ZM31.3416 75.5891C30.8385 76.318 30.6675 77.3837 30.6675 78.6006H32.3818C32.3818 77.4603 32.5591 76.843 32.7524 76.563L31.3416 75.5891ZM30.6675 78.6006C30.6675 79.7793 30.826 80.8033 31.264 81.5375L32.7362 80.6592C32.5403 80.3309 32.3818 79.6897 32.3818 78.6006H30.6675ZM31.2667 81.5421C31.7624 82.3613 32.5646 82.7524 33.5135 82.7524V81.0381C33.0874 81.0381 32.8806 80.8979 32.7335 80.6546L31.2667 81.5421ZM33.5135 82.7524C34.4713 82.7524 35.2914 82.3807 35.8418 81.5982L34.4397 80.6119C34.249 80.883 33.9842 81.0381 33.5135 81.0381V82.7524ZM35.839 81.6021C36.373 80.852 36.5604 79.7702 36.5604 78.5336H34.8461C34.8461 79.6721 34.6584 80.3046 34.4424 80.608L35.839 81.6021ZM36.5604 78.5336C36.5604 77.3678 36.3901 76.3442 35.9094 75.6168L34.4792 76.562C34.6771 76.8614 34.8461 77.4673 34.8461 78.5336H36.5604ZM35.9141 75.624C35.3987 74.8269 34.5904 74.4555 33.6474 74.4555V76.1698C34.0973 76.1698 34.3202 76.3162 34.4745 76.5548L35.9141 75.624ZM41.422 75.4064H42.2791V74.5492H41.422V75.4064ZM40.1162 75.4064V74.5492H39.4552L39.2872 75.1885L40.1162 75.4064ZM39.7747 76.7055V77.5626H40.4356L40.6036 76.9234L39.7747 76.7055ZM38.509 76.7055H37.6519V77.5626H38.509V76.7055ZM38.509 73.7591V72.9019H37.6519V73.7591H38.509ZM46.4644 73.7591H47.3215V72.9019H46.4644V73.7591ZM46.4644 76.7055V77.5626H47.3215V76.7055H46.4644ZM45.1921 76.7055L44.3631 76.9234L44.5311 77.5626H45.1921V76.7055ZM44.8506 75.4064L45.6795 75.1885L45.5115 74.5492H44.8506V75.4064ZM43.5448 75.4064V74.5492H42.6876V75.4064H43.5448ZM43.5448 81.8484H42.6876V82.4753L43.285 82.6652L43.5448 81.8484ZM44.8506 82.2635H45.7077V81.6366L45.1103 81.4467L44.8506 82.2635ZM44.8506 83.4287V84.2859H45.7077V83.4287H44.8506ZM40.1162 83.4287H39.259V84.2859H40.1162V83.4287ZM40.1162 82.2635L39.8565 81.4467L39.259 81.6366V82.2635H40.1162ZM41.422 81.8484L41.6817 82.6652L42.2791 82.4753V81.8484H41.422ZM41.422 74.5492H40.1162V76.2635H41.422V74.5492ZM39.2872 75.1885L38.9457 76.4876L40.6036 76.9234L40.9452 75.6243L39.2872 75.1885ZM39.7747 75.8484H38.509V77.5626H39.7747V75.8484ZM39.3662 76.7055V73.7591H37.6519V76.7055H39.3662ZM38.509 74.6162H46.4644V72.9019H38.509V74.6162ZM45.6073 73.7591V76.7055H47.3215V73.7591H45.6073ZM46.4644 75.8484H45.1921V77.5626H46.4644V75.8484ZM46.021 76.4876L45.6795 75.1885L44.0216 75.6243L44.3631 76.9234L46.021 76.4876ZM44.8506 74.5492H43.5448V76.2635H44.8506V74.5492ZM42.6876 75.4064V81.8484H44.4019V75.4064H42.6876ZM43.285 82.6652L44.5908 83.0804L45.1103 81.4467L43.8045 81.0315L43.285 82.6652ZM43.9934 82.2635V83.4287H45.7077V82.2635H43.9934ZM44.8506 82.5716H40.1162V84.2859H44.8506V82.5716ZM40.9733 83.4287V82.2635H39.259V83.4287H40.9733ZM40.3759 83.0804L41.6817 82.6652L41.1623 81.0315L39.8565 81.4467L40.3759 83.0804ZM42.2791 81.8484V75.4064H40.5648V81.8484H42.2791ZM53.1407 79.1765V80.0336H53.9979V79.1765H53.1407ZM50.3684 79.1765V78.3193H49.5113V79.1765H50.3684ZM50.3684 81.7814H49.5113V82.6385H50.3684V81.7814ZM52.826 81.7814V82.6385H53.4763L53.6515 82.0123L52.826 81.7814ZM53.1407 80.6564V79.7992H52.4905L52.3153 80.4255L53.1407 80.6564ZM54.3729 80.6564H55.23V79.7992H54.3729V80.6564ZM54.3729 83.4287V84.2859H55.23V83.4287H54.3729ZM47.2144 83.4287H46.3573V84.2859H47.2144V83.4287ZM47.2144 82.2635L46.8943 81.4684L46.3573 81.6846V82.2635H47.2144ZM48.2456 81.8484L48.5658 82.6435L49.1028 82.4273V81.8484H48.2456ZM48.2456 75.4064H49.1028V74.8275L48.5658 74.6113L48.2456 75.4064ZM47.2144 74.9912H46.3573V75.5701L46.8943 75.7863L47.2144 74.9912ZM47.2144 73.826L47.1962 72.9691L46.3573 72.9869V73.826H47.2144ZM50.3684 73.7591V72.9019H50.3593L50.3502 72.9021L50.3684 73.7591ZM54.2122 73.7591H55.0693V72.9019H54.2122V73.7591ZM54.2122 76.4042V77.2613H55.0693V76.4042H54.2122ZM52.9733 76.4042L52.1624 76.6817L52.3607 77.2613H52.9733V76.4042ZM52.6318 75.4064L53.4428 75.1288L53.2444 74.5492H52.6318V75.4064ZM50.3684 75.4064V74.5492H49.5113V75.4064H50.3684ZM50.3684 77.6698H49.5113V78.5269H50.3684V77.6698ZM53.1407 77.6698H53.9979V76.8126H53.1407V77.6698ZM53.1407 78.3193H50.3684V80.0336H53.1407V78.3193ZM49.5113 79.1765V81.7814H51.2256V79.1765H49.5113ZM50.3684 82.6385H52.826V80.9242H50.3684V82.6385ZM53.6515 82.0123L53.9662 80.8873L52.3153 80.4255L52.0006 81.5505L53.6515 82.0123ZM53.1407 81.5135H54.3729V79.7992H53.1407V81.5135ZM53.5157 80.6564V83.4287H55.23V80.6564H53.5157ZM54.3729 82.5716H47.2144V84.2859H54.3729V82.5716ZM48.0715 83.4287V82.2635H46.3573V83.4287H48.0715ZM47.5345 83.0587L48.5658 82.6435L47.9255 81.0532L46.8943 81.4684L47.5345 83.0587ZM49.1028 81.8484V75.4064H47.3885V81.8484H49.1028ZM48.5658 74.6113L47.5345 74.1961L46.8943 75.7863L47.9255 76.2015L48.5658 74.6113ZM48.0715 74.9912V73.826H46.3573V74.9912H48.0715ZM47.2326 74.683L50.3866 74.616L50.3502 72.9021L47.1962 72.9691L47.2326 74.683ZM50.3684 74.6162H54.2122V72.9019H50.3684V74.6162ZM53.355 73.7591V76.4042H55.0693V73.7591H53.355ZM54.2122 75.547H52.9733V77.2613H54.2122V75.547ZM53.7843 76.1266L53.4428 75.1288L51.8209 75.684L52.1624 76.6817L53.7843 76.1266ZM52.6318 74.5492H50.3684V76.2635H52.6318V74.5492ZM49.5113 75.4064V77.6698H51.2256V75.4064H49.5113ZM50.3684 78.5269H53.1407V76.8126H50.3684V78.5269ZM52.2836 77.6698V79.1765H53.9979V77.6698H52.2836Z" fill="#112B4F" mask="url(#path-2-outside-1_333_87)"/>
</svg>
